<svg xmlns="http://www.w3.org/2000/svg" viewBox="0 0 70.66 50"><defs><style>.cls-1{fill:#e31f19;}.cls-2{fill:#fff;}.cls-3{fill:none;}</style></defs><g id="レイヤー_2" data-name="レイヤー 2"><g id="design"><path class="cls-1" d="M52.93,14c-3.46-2.93-8.69-3.13-11.92-1.93a15.46,15.46,0,0,0-5.12,3.12.72.72,0,0,1-1.12,0,15.46,15.46,0,0,0-5.12-3.12c-3.23-1.2-8.46-1-11.92,1.93a11.88,11.88,0,0,0-4,10.53,16.44,16.44,0,0,0,2.65,7.48,40.25,40.25,0,0,0,3.37,4.2A108.33,108.33,0,0,0,30.68,46.47c1.09.91,3.8,3.11,4,3.22a.95.95,0,0,0,1.4,0c.15-.11,2.86-2.31,3.95-3.22A108.33,108.33,0,0,0,50.86,36.25a40.25,40.25,0,0,0,3.37-4.2,16.44,16.44,0,0,0,2.65-7.48A11.88,11.88,0,0,0,52.93,14Z"/><rect class="cls-1" x="48.99" y="3.4" width="11.21" height="2.37" rx="0.46" transform="translate(12.43 39.57) rotate(-44.48)"/><rect class="cls-1" x="55.33" y="7.43" width="11.26" height="2.37" rx="0.46" transform="translate(10.13 43.35) rotate(-42.39)"/><rect class="cls-1" x="60.59" y="13.15" width="10.78" height="2.37" rx="0.46" transform="translate(6.59 46.45) rotate(-40.65)"/><path class="cls-2" d="M41.08,34.2V32a3.9,3.9,0,0,0-.33-2.1c-.48-.81-1.46-.81-2.24-.81s-.92.2-.92.87v6.64c0,.36,0,.67.3.83a1.14,1.14,0,0,0,.51.11c.36,0,.72,0,1.08,0A1.5,1.5,0,0,0,40.64,37C41.19,36.31,41.06,35.15,41.08,34.2ZM39.84,35c0,.47,0,.91-.33,1a1,1,0,0,1-.34.06c-.15,0-.3,0-.34-.26s0-4.75,0-5.1c0-.15,0-.34.25-.36a.64.64,0,0,1,.53.14c.19.15.26.32.26.84Z"/><path class="cls-2" d="M37.86,26.36c0-.33,0-.66,0-1V20.32a8.19,8.19,0,0,0,0-1,.58.58,0,0,0-.54-.53.62.62,0,0,0-.67.37c-.39,1.08-.68,2.21-1,3.32a2.25,2.25,0,0,1-.14.44c-.16.3-.47.29-.59,0-.3-.94-.54-1.9-.8-2.85-.13-.53-.3-1.37-1-1.23-.51.07-.54.65-.51,1.06v2.52c0,1.34,0,2.68,0,4a.81.81,0,0,0,.3.76.55.55,0,0,0,.7-.1,2.29,2.29,0,0,0,.21-1.39.53.53,0,0,1,.09-.39.23.23,0,0,1,.3,0,1.25,1.25,0,0,1,.23.46l.3.85c.09.25.3.62.61.62.48,0,.68-.89.84-1.41a2,2,0,0,1,.16-.43.19.19,0,0,1,.29-.05c.1.09.09.27.09.4,0,.53,0,1.12.22,1.33a.54.54,0,0,0,.69.09C37.82,27,37.85,26.63,37.86,26.36Z"/><path class="cls-2" d="M34.84,30.84a11.58,11.58,0,0,0-.21-1.15.75.75,0,0,0-.34-.51,1.52,1.52,0,0,0-1-.08c-.33,0-.43.27-.52.73,0,.2-.08.45-.11.65-.32,2-.68,4.05-.92,6.09a1.35,1.35,0,0,0,0,.6.6.6,0,0,0,.88.19.79.79,0,0,0,.25-.44,3.62,3.62,0,0,1,.29-1c.1-.15.27-.18.58-.18s.4,0,.5.19a1.48,1.48,0,0,1,.17.54,5,5,0,0,0,.12.53.54.54,0,0,0,.36.41.56.56,0,0,0,.8-.56c0-.4-.09-.66-.14-1.06C35.36,34.14,35.1,32.49,34.84,30.84ZM34.21,34a.47.47,0,0,1-.9.08,1,1,0,0,1,0-.25c0-.29.16-1.3.45-1.3s.28.26.35.52A2.21,2.21,0,0,1,34.21,34Z"/><path class="cls-2" d="M29.88,30.55a6.55,6.55,0,0,0,0-1,.57.57,0,0,0-.54-.53.63.63,0,0,0-.67.37c-.39,1.08-.68,2.21-1,3.31a2.15,2.15,0,0,1-.14.45c-.16.3-.47.29-.59,0-.29-.94-.54-1.9-.79-2.85-.14-.54-.3-1.38-1-1.23-.52.07-.54.64-.52,1.06v6.53a.82.82,0,0,0,.3.76.54.54,0,0,0,.7-.1,2.26,2.26,0,0,0,.21-1.39.52.52,0,0,1,.09-.38.24.24,0,0,1,.31,0,1.26,1.26,0,0,1,.22.45c.11.32.19.54.31.85s.29.63.6.63c.49,0,.69-.9.85-1.41a1.57,1.57,0,0,1,.15-.43.19.19,0,0,1,.29-.06c.11.1.09.28.09.41,0,.52,0,1.12.22,1.33a.56.56,0,0,0,.7.09c.26-.14.28-.52.29-.78s0-.66,0-1Z"/><path class="cls-2" d="M25,26.94a1.8,1.8,0,0,0,.12-.86V19.63c0-.44-.14-.83-.62-.83s-.64.31-.63.78v2.23c0,.22-.06.64-.54.64a.54.54,0,0,1-.51-.6v-2.2c0-.24,0-.54-.21-.7a.69.69,0,0,0-.75-.07.83.83,0,0,0-.3.7c0,2.13,0,4.63,0,6.77,0,.67.2.89.63.89s.64-.41.64-1V24.48c0-.47.1-.75.53-.75s.52.24.52.78v1.58a2.12,2.12,0,0,0,.09.8.52.52,0,0,0,.56.35A.54.54,0,0,0,25,26.94Z"/><path class="cls-2" d="M30.57,19.24a.64.64,0,0,0-1.15-.11,2.08,2.08,0,0,0-.11.86v4.87c0,.51-.11,1-.5,1s-.48-.29-.48-.8V20.11c0-.46.08-1.19-.53-1.3s-.81.48-.81,1.08v3.7a8.6,8.6,0,0,0,.24,2.65,1.7,1.7,0,0,0,2.69.68,3.1,3.1,0,0,0,.75-2.34v-4.5A2.93,2.93,0,0,0,30.57,19.24Z"/><path class="cls-2" d="M49.11,21.37V19.79a1.71,1.71,0,0,0-.08-.71.56.56,0,0,0-1,.34c0,.5,0,.65-.05,1.26,0,.2,0,.47-.22.51s-.32-.12-.41-.4-.13-.49-.2-.74c-.14-.51-.18-1-.63-1.19a.68.68,0,0,0-.56,0c-.4.19-.33.91-.35,1.28,0,2.08,0,4.16,0,6.24,0,.48.18.9.74.83s.46-.75.48-1.17,0-.8.21-.91a.29.29,0,0,1,.31.06,1.25,1.25,0,0,1,.27.54A9.51,9.51,0,0,0,48,26.88a.55.55,0,0,0,.63.35c.48-.1.45-.75.45-1.15Z"/><path class="cls-2" d="M43.71,26.63c-.05-.4-.09-.66-.14-1.06-.23-1.66-.49-3.31-.75-5a11.58,11.58,0,0,0-.21-1.15.75.75,0,0,0-.34-.51,1.52,1.52,0,0,0-1-.08c-.33.05-.43.27-.53.73,0,.2-.07.45-.1.65-.33,2-.68,4.05-.92,6.09a1.21,1.21,0,0,0,0,.6.59.59,0,0,0,.88.19.81.81,0,0,0,.25-.44,3.55,3.55,0,0,1,.29-1c.1-.15.26-.19.58-.19s.4.05.5.2a1.42,1.42,0,0,1,.17.54,4.87,4.87,0,0,0,.12.52.58.58,0,0,0,.36.42A.57.57,0,0,0,43.71,26.63ZM42.19,23.8a.47.47,0,0,1-.9.08,1,1,0,0,1,0-.25c0-.29.16-1.29.45-1.29s.28.26.35.51A2.21,2.21,0,0,1,42.19,23.8Z"/><path class="cls-2" d="M44.52,30.35a2.06,2.06,0,0,1,.42,0l.35,0a1.05,1.05,0,0,0,.6-.15.69.69,0,0,0,.23-.54.52.52,0,0,0-.33-.47,3.56,3.56,0,0,0-.69-.1c-.23,0-1,0-1.4,0a1.12,1.12,0,0,0-.36.05c-.25.08-.4.3-.4.78,0,.24,0,6.59,0,6.7s0,.24,0,.35a.7.7,0,0,0,.3.49,1.12,1.12,0,0,0,.62.12h1.42a1.23,1.23,0,0,0,.33,0,.68.68,0,0,0,.27-.13.57.57,0,0,0,.21-.53.52.52,0,0,0-.1-.27.91.91,0,0,0-.56-.26l-.68,0a.76.76,0,0,1-.35-.11.62.62,0,0,1-.18-.47c0-.12,0-1,0-1.07a.89.89,0,0,1,.08-.47.64.64,0,0,1,.43-.2l.34,0a2,2,0,0,0,.34-.05.56.56,0,0,0,.42-.37.62.62,0,0,0-.09-.58.5.5,0,0,0-.29-.18,1.76,1.76,0,0,0-.33-.07,2.27,2.27,0,0,1-.72-.12c-.16-.12-.16-.27-.18-.44s0-1.15,0-1.33S44.33,30.4,44.52,30.35Z"/><rect class="cls-3" width="70.66" height="50"/></g></g></svg>